<mxfile host="app.diagrams.net" modified="2024-06-05T16:10:13.355Z" agent="Mozilla/5.0 (Windows NT 10.0; Win64; x64; rv:126.0) Gecko/20100101 Firefox/126.0" etag="qUDIM8heuv5mMMSTaPWM" compressed="false" version="24.4.14" type="device" pages="4">
  <diagram id="6RAhigDAn0kupcP6AIIJ" name="sitemap">
    <mxGraphModel dx="3272" dy="1533" grid="1" gridSize="10" guides="1" tooltips="1" connect="1" arrows="1" fold="1" page="0" pageScale="1" pageWidth="850" pageHeight="1100" math="0" shadow="0">
      <root>
        <mxCell id="0" />
        <mxCell id="1" parent="0" />
        <mxCell id="mQDdmRGSbBpISK8NYDqX-1" value="&lt;b&gt;&lt;font style=&quot;font-size: 13px&quot;&gt;Release 2&lt;/font&gt;&lt;/b&gt;&lt;br style=&quot;font-size: 12px&quot;&gt;&lt;font style=&quot;font-size: 11px&quot;&gt;[Scope]&lt;/font&gt;" style="rounded=0;whiteSpace=wrap;html=1;dashed=1;verticalAlign=bottom;align=left;fontSize=12;fontColor=#333333;spacingBottom=4;spacingLeft=2;fillColor=none;strokeColor=#666666;" parent="1" vertex="1">
          <mxGeometry x="-1000" y="560" width="640" height="680" as="geometry" />
        </mxCell>
        <mxCell id="TL-VcJ01x00mZeEzHa4U-14" value="&lt;b&gt;&lt;font style=&quot;font-size: 13px&quot;&gt;Release 1&lt;/font&gt;&lt;/b&gt;&lt;br style=&quot;font-size: 12px&quot;&gt;&lt;font style=&quot;font-size: 11px&quot;&gt;[Scope]&lt;/font&gt;" style="rounded=0;whiteSpace=wrap;html=1;dashed=1;verticalAlign=bottom;align=left;fontSize=12;fontColor=#333333;spacingBottom=4;spacingLeft=2;fillColor=none;strokeColor=#666666;" parent="1" vertex="1">
          <mxGeometry x="-320" y="-80" width="880" height="800" as="geometry" />
        </mxCell>
        <mxCell id="TL-VcJ01x00mZeEzHa4U-22" value="&lt;b&gt;&lt;font style=&quot;font-size: 13px&quot;&gt;Release 3&lt;/font&gt;&lt;/b&gt;&lt;br style=&quot;font-size: 12px&quot;&gt;&lt;font style=&quot;font-size: 11px&quot;&gt;[Scope]&lt;/font&gt;" style="rounded=0;whiteSpace=wrap;html=1;dashed=1;verticalAlign=bottom;align=left;fontSize=12;fontColor=#333333;spacingBottom=4;spacingLeft=2;fillColor=none;strokeColor=#666666;" parent="1" vertex="1">
          <mxGeometry x="-320" y="800" width="1240" height="200" as="geometry" />
        </mxCell>
        <mxCell id="TL-VcJ01x00mZeEzHa4U-1" value="&lt;b&gt;Website Homepage&lt;/b&gt;&lt;br&gt;&lt;font style=&quot;font-size: 10px&quot;&gt;[Route: domain.com]&lt;br&gt;&lt;br&gt;A main page with CTA&#39;s for Sign In / Register and links to guides and sanbox&lt;/font&gt;" style="rounded=1;whiteSpace=wrap;html=1;align=center;strokeColor=default;fillColor=default;comic=0;resizable=0;" parent="1" vertex="1">
          <mxGeometry x="-280" y="360" width="200" height="120" as="geometry" />
        </mxCell>
        <mxCell id="TL-VcJ01x00mZeEzHa4U-3" value="&lt;b&gt;Pricing&lt;/b&gt;&lt;br&gt;&lt;font style=&quot;font-size: 10px&quot;&gt;[Route: domain.com/pricing]&lt;br&gt;&lt;br&gt;A sanbox diagram without a way to save the diagram, only export it and play around&lt;/font&gt;" style="rounded=1;whiteSpace=wrap;html=1;align=center;strokeColor=default;fillColor=default;comic=0;resizable=0;" parent="1" vertex="1">
          <mxGeometry x="40" y="360" width="200" height="120" as="geometry" />
        </mxCell>
        <mxCell id="TL-VcJ01x00mZeEzHa4U-4" value="Open sanbox&lt;br&gt;&lt;font style=&quot;font-size: 10px&quot;&gt;[HTTPS]&lt;/font&gt;" style="endArrow=classic;html=1;edgeStyle=orthogonalEdgeStyle;rounded=0;flowAnimation=0;" parent="1" source="TL-VcJ01x00mZeEzHa4U-1" target="TL-VcJ01x00mZeEzHa4U-3" edge="1">
          <mxGeometry width="50" height="50" relative="1" as="geometry">
            <mxPoint x="-70" y="710" as="sourcePoint" />
            <mxPoint x="10" y="630" as="targetPoint" />
          </mxGeometry>
        </mxCell>
        <mxCell id="TL-VcJ01x00mZeEzHa4U-5" value="&lt;b&gt;Workspace&lt;/b&gt;&lt;br&gt;&lt;font style=&quot;font-size: 10px&quot;&gt;[Route: app.domain.com/workspace/{id}]&lt;br&gt;&lt;br&gt;A diagram page where the user is able to save the diagram and send link for collaboration&lt;/font&gt;" style="rounded=1;whiteSpace=wrap;html=1;align=center;strokeColor=default;fillColor=default;comic=0;resizable=0;" parent="1" vertex="1">
          <mxGeometry x="360" y="840" width="200" height="120" as="geometry" />
        </mxCell>
        <mxCell id="TL-VcJ01x00mZeEzHa4U-7" value="&lt;b&gt;Sign Up&lt;/b&gt;&lt;br&gt;&lt;font style=&quot;font-size: 10px&quot;&gt;[Route: auth.domain.com/signup]&lt;br&gt;&lt;br&gt;A user profile page for personal information details nd statistics&lt;/font&gt;" style="rounded=1;whiteSpace=wrap;html=1;align=center;strokeColor=default;fillColor=default;comic=0;resizable=0;" parent="1" vertex="1">
          <mxGeometry x="-600" y="600" width="200" height="120" as="geometry" />
        </mxCell>
        <mxCell id="TL-VcJ01x00mZeEzHa4U-12" value="&lt;b&gt;Selected Project&lt;/b&gt;&lt;br&gt;&lt;font style=&quot;font-size: 10px&quot;&gt;[Route: app.domain.com/project/{id}]&lt;br&gt;&lt;br&gt;A project page with a set of diagrams create by the user&lt;/font&gt;" style="rounded=1;whiteSpace=wrap;html=1;align=center;strokeColor=default;fillColor=default;comic=0;resizable=0;" parent="1" vertex="1">
          <mxGeometry x="40" y="840" width="200" height="120" as="geometry" />
        </mxCell>
        <mxCell id="TL-VcJ01x00mZeEzHa4U-13" value="&lt;b&gt;Projects&lt;/b&gt;&lt;br&gt;&lt;font style=&quot;font-size: 10px&quot;&gt;[Route: app.domain.com/projects]&lt;br&gt;&lt;br&gt;A project list page with a set of projects per user account&lt;/font&gt;" style="rounded=1;whiteSpace=wrap;html=1;align=center;strokeColor=default;fillColor=default;comic=0;resizable=0;" parent="1" vertex="1">
          <mxGeometry x="-280" y="840" width="200" height="120" as="geometry" />
        </mxCell>
        <mxCell id="TL-VcJ01x00mZeEzHa4U-15" value="Open profile&lt;br&gt;&lt;font style=&quot;font-size: 10px&quot;&gt;[HTTPS]&lt;/font&gt;" style="endArrow=classic;html=1;edgeStyle=orthogonalEdgeStyle;rounded=0;flowAnimation=0;" parent="1" source="TL-VcJ01x00mZeEzHa4U-1" target="TL-VcJ01x00mZeEzHa4U-7" edge="1">
          <mxGeometry width="50" height="50" relative="1" as="geometry">
            <mxPoint x="430" y="310" as="sourcePoint" />
            <mxPoint x="435" y="430" as="targetPoint" />
          </mxGeometry>
        </mxCell>
        <mxCell id="TL-VcJ01x00mZeEzHa4U-16" value="Open diagram&lt;br&gt;&lt;font style=&quot;font-size: 10px&quot;&gt;[HTTPS]&lt;/font&gt;" style="endArrow=classic;html=1;edgeStyle=orthogonalEdgeStyle;rounded=0;flowAnimation=0;" parent="1" source="TL-VcJ01x00mZeEzHa4U-12" target="TL-VcJ01x00mZeEzHa4U-5" edge="1">
          <mxGeometry width="50" height="50" relative="1" as="geometry">
            <mxPoint x="530" y="100" as="sourcePoint" />
            <mxPoint x="690" y="100" as="targetPoint" />
          </mxGeometry>
        </mxCell>
        <mxCell id="TL-VcJ01x00mZeEzHa4U-18" value="Open profile&lt;br&gt;&lt;font style=&quot;font-size: 10px&quot;&gt;[HTTPS]&lt;/font&gt;" style="endArrow=classic;html=1;edgeStyle=orthogonalEdgeStyle;rounded=0;flowAnimation=0;" parent="1" source="TL-VcJ01x00mZeEzHa4U-7" target="7uxNCrYDZUdD2VjblNM6-6" edge="1">
          <mxGeometry width="50" height="50" relative="1" as="geometry">
            <mxPoint x="450" y="310" as="sourcePoint" />
            <mxPoint x="450" y="450" as="targetPoint" />
          </mxGeometry>
        </mxCell>
        <mxCell id="TL-VcJ01x00mZeEzHa4U-19" value="Open profile&lt;br&gt;&lt;font style=&quot;font-size: 10px&quot;&gt;[HTTPS]&lt;/font&gt;" style="endArrow=classic;html=1;edgeStyle=orthogonalEdgeStyle;rounded=0;flowAnimation=0;entryX=0;entryY=0.5;entryDx=0;entryDy=0;" parent="1" source="TL-VcJ01x00mZeEzHa4U-1" target="7uxNCrYDZUdD2VjblNM6-17" edge="1">
          <mxGeometry width="50" height="50" relative="1" as="geometry">
            <mxPoint x="450" y="510" as="sourcePoint" />
            <mxPoint x="120" y="180" as="targetPoint" />
          </mxGeometry>
        </mxCell>
        <mxCell id="TL-VcJ01x00mZeEzHa4U-20" value="Open profile&lt;br&gt;&lt;font style=&quot;font-size: 10px&quot;&gt;[HTTPS]&lt;/font&gt;" style="endArrow=classic;html=1;edgeStyle=orthogonalEdgeStyle;rounded=0;flowAnimation=0;" parent="1" source="TL-VcJ01x00mZeEzHa4U-13" target="TL-VcJ01x00mZeEzHa4U-12" edge="1">
          <mxGeometry width="50" height="50" relative="1" as="geometry">
            <mxPoint x="290" y="350" as="sourcePoint" />
            <mxPoint x="130" y="450" as="targetPoint" />
          </mxGeometry>
        </mxCell>
        <mxCell id="7uxNCrYDZUdD2VjblNM6-4" value="&lt;b&gt;Workspace Viewer&lt;/b&gt;&lt;br&gt;&lt;font style=&quot;font-size: 10px&quot;&gt;[Route: app.domain.com/workspace/{id}]&lt;br&gt;&lt;br&gt;A diagram page where the user is able to save the diagram and send link for collaboration&lt;/font&gt;" style="rounded=1;whiteSpace=wrap;html=1;align=center;strokeColor=default;fillColor=default;comic=0;resizable=0;" parent="1" vertex="1">
          <mxGeometry x="680" y="840" width="200" height="120" as="geometry" />
        </mxCell>
        <mxCell id="7uxNCrYDZUdD2VjblNM6-5" value="Open viewer&lt;br&gt;&lt;font style=&quot;font-size: 10px&quot;&gt;[HTTPS]&lt;/font&gt;" style="endArrow=classic;html=1;edgeStyle=orthogonalEdgeStyle;rounded=0;flowAnimation=0;" parent="1" source="TL-VcJ01x00mZeEzHa4U-5" target="7uxNCrYDZUdD2VjblNM6-4" edge="1">
          <mxGeometry width="50" height="50" relative="1" as="geometry">
            <mxPoint x="249.99999999999977" y="710.0476190476193" as="sourcePoint" />
            <mxPoint x="469.9999999999998" y="850" as="targetPoint" />
          </mxGeometry>
        </mxCell>
        <mxCell id="7uxNCrYDZUdD2VjblNM6-6" value="&lt;b&gt;Dashboard&lt;/b&gt;&lt;br&gt;&lt;font style=&quot;font-size: 10px&quot;&gt;[Route: app.domain.com]&lt;br&gt;&lt;br&gt;A project list page with a set of projects per user account&lt;/font&gt;" style="rounded=1;whiteSpace=wrap;html=1;align=center;strokeColor=default;fillColor=default;comic=0;resizable=0;" parent="1" vertex="1">
          <mxGeometry x="-600" y="840" width="200" height="120" as="geometry" />
        </mxCell>
        <mxCell id="7uxNCrYDZUdD2VjblNM6-7" value="Open profile&lt;br&gt;&lt;font style=&quot;font-size: 10px&quot;&gt;[HTTPS]&lt;/font&gt;" style="endArrow=classic;html=1;edgeStyle=orthogonalEdgeStyle;rounded=0;flowAnimation=0;" parent="1" source="7uxNCrYDZUdD2VjblNM6-6" target="TL-VcJ01x00mZeEzHa4U-13" edge="1">
          <mxGeometry width="50" height="50" relative="1" as="geometry">
            <mxPoint x="-70" y="910" as="sourcePoint" />
            <mxPoint x="50" y="910" as="targetPoint" />
          </mxGeometry>
        </mxCell>
        <mxCell id="7uxNCrYDZUdD2VjblNM6-8" value="&lt;b&gt;Sign In&lt;/b&gt;&lt;br&gt;&lt;font style=&quot;font-size: 10px&quot;&gt;[Route: auth.domain.com/signin]&lt;br&gt;&lt;br&gt;A user profile page for personal information details nd statistics&lt;/font&gt;" style="rounded=1;whiteSpace=wrap;html=1;align=center;strokeColor=default;fillColor=default;comic=0;resizable=0;" parent="1" vertex="1">
          <mxGeometry x="-960" y="600" width="200" height="120" as="geometry" />
        </mxCell>
        <mxCell id="7uxNCrYDZUdD2VjblNM6-9" value="Open profile&lt;br&gt;&lt;font style=&quot;font-size: 10px&quot;&gt;[HTTPS]&lt;/font&gt;" style="endArrow=classic;html=1;edgeStyle=orthogonalEdgeStyle;rounded=0;flowAnimation=0;" parent="1" source="7uxNCrYDZUdD2VjblNM6-8" target="TL-VcJ01x00mZeEzHa4U-7" edge="1">
          <mxGeometry width="50" height="50" relative="1" as="geometry">
            <mxPoint x="-490" y="730" as="sourcePoint" />
            <mxPoint x="-490" y="850" as="targetPoint" />
          </mxGeometry>
        </mxCell>
        <mxCell id="7uxNCrYDZUdD2VjblNM6-10" value="&lt;b&gt;Account&lt;/b&gt;&lt;br&gt;&lt;font style=&quot;font-size: 10px&quot;&gt;[Route: account.domain.com]&lt;br&gt;&lt;br&gt;A user profile page for personal information details nd statistics&lt;/font&gt;" style="rounded=1;whiteSpace=wrap;html=1;align=center;strokeColor=default;fillColor=default;comic=0;resizable=0;" parent="1" vertex="1">
          <mxGeometry x="-600" y="1080" width="200" height="120" as="geometry" />
        </mxCell>
        <mxCell id="7uxNCrYDZUdD2VjblNM6-11" value="Open profile&lt;br&gt;&lt;font style=&quot;font-size: 10px&quot;&gt;[HTTPS]&lt;/font&gt;" style="endArrow=classic;html=1;edgeStyle=orthogonalEdgeStyle;rounded=0;flowAnimation=0;" parent="1" source="7uxNCrYDZUdD2VjblNM6-6" target="7uxNCrYDZUdD2VjblNM6-10" edge="1">
          <mxGeometry width="50" height="50" relative="1" as="geometry">
            <mxPoint x="-490" y="730" as="sourcePoint" />
            <mxPoint x="-490" y="850" as="targetPoint" />
          </mxGeometry>
        </mxCell>
        <mxCell id="7uxNCrYDZUdD2VjblNM6-12" value="Open profile&lt;br&gt;&lt;font style=&quot;font-size: 10px&quot;&gt;[HTTPS]&lt;/font&gt;" style="endArrow=classic;html=1;edgeStyle=orthogonalEdgeStyle;rounded=0;flowAnimation=0;" parent="1" source="7uxNCrYDZUdD2VjblNM6-10" target="7uxNCrYDZUdD2VjblNM6-8" edge="1">
          <mxGeometry width="50" height="50" relative="1" as="geometry">
            <mxPoint x="-480" y="740" as="sourcePoint" />
            <mxPoint x="-480" y="860" as="targetPoint" />
          </mxGeometry>
        </mxCell>
        <mxCell id="7uxNCrYDZUdD2VjblNM6-13" value="Open profile&lt;br&gt;&lt;font style=&quot;font-size: 10px&quot;&gt;[HTTPS]&lt;/font&gt;" style="endArrow=classic;html=1;edgeStyle=orthogonalEdgeStyle;rounded=0;flowAnimation=0;entryX=0.75;entryY=1;entryDx=0;entryDy=0;" parent="1" source="7uxNCrYDZUdD2VjblNM6-6" target="7uxNCrYDZUdD2VjblNM6-8" edge="1">
          <mxGeometry width="50" height="50" relative="1" as="geometry">
            <mxPoint x="-470" y="750" as="sourcePoint" />
            <mxPoint x="-470" y="870" as="targetPoint" />
          </mxGeometry>
        </mxCell>
        <mxCell id="7uxNCrYDZUdD2VjblNM6-14" value="&lt;b&gt;Architecture Reference Hub&lt;/b&gt;&lt;br&gt;&lt;font style=&quot;font-size: 10px&quot;&gt;[Route: app.domain.com/hub]&lt;br&gt;&lt;br&gt;A project list page with a set of projects per user account&lt;/font&gt;" style="rounded=1;whiteSpace=wrap;html=1;align=center;strokeColor=default;fillColor=default;comic=0;resizable=0;" parent="1" vertex="1">
          <mxGeometry x="-280" y="1080" width="200" height="120" as="geometry" />
        </mxCell>
        <mxCell id="7uxNCrYDZUdD2VjblNM6-15" value="Open profile&lt;br&gt;&lt;font style=&quot;font-size: 10px&quot;&gt;[HTTPS]&lt;/font&gt;" style="endArrow=classic;html=1;edgeStyle=orthogonalEdgeStyle;rounded=0;flowAnimation=0;entryX=0;entryY=0.5;entryDx=0;entryDy=0;" parent="1" source="7uxNCrYDZUdD2VjblNM6-6" target="7uxNCrYDZUdD2VjblNM6-14" edge="1">
          <mxGeometry width="50" height="50" relative="1" as="geometry">
            <mxPoint x="-390" y="910" as="sourcePoint" />
            <mxPoint x="-270" y="910" as="targetPoint" />
          </mxGeometry>
        </mxCell>
        <mxCell id="7uxNCrYDZUdD2VjblNM6-16" value="Open profile&lt;br&gt;&lt;font style=&quot;font-size: 10px&quot;&gt;[HTTPS]&lt;/font&gt;" style="endArrow=classic;html=1;edgeStyle=orthogonalEdgeStyle;rounded=0;flowAnimation=0;" parent="1" source="7uxNCrYDZUdD2VjblNM6-14" target="7uxNCrYDZUdD2VjblNM6-4" edge="1">
          <mxGeometry width="50" height="50" relative="1" as="geometry">
            <mxPoint x="-390" y="910" as="sourcePoint" />
            <mxPoint x="-270" y="1150" as="targetPoint" />
          </mxGeometry>
        </mxCell>
        <mxCell id="7uxNCrYDZUdD2VjblNM6-17" value="&lt;b&gt;About&lt;/b&gt;&lt;br&gt;&lt;font style=&quot;font-size: 10px&quot;&gt;[Route: domain.com/about]&lt;br&gt;&lt;br&gt;A sanbox diagram without a way to save the diagram, only export it and play around&lt;/font&gt;" style="rounded=1;whiteSpace=wrap;html=1;align=center;strokeColor=default;fillColor=default;comic=0;resizable=0;" parent="1" vertex="1">
          <mxGeometry x="40" y="160" width="200" height="120" as="geometry" />
        </mxCell>
        <mxCell id="7uxNCrYDZUdD2VjblNM6-18" value="&lt;b&gt;Docs&lt;/b&gt;&lt;br&gt;&lt;font style=&quot;font-size: 10px&quot;&gt;[Route: domain.com/docs]&lt;br&gt;&lt;br&gt;A sanbox diagram without a way to save the diagram, only export it and play around&lt;/font&gt;" style="rounded=1;whiteSpace=wrap;html=1;align=center;strokeColor=default;fillColor=default;comic=0;resizable=0;" parent="1" vertex="1">
          <mxGeometry x="40" y="-40" width="200" height="120" as="geometry" />
        </mxCell>
        <mxCell id="7uxNCrYDZUdD2VjblNM6-19" value="&lt;b&gt;Sandbox&lt;/b&gt;&lt;br&gt;&lt;font style=&quot;font-size: 10px&quot;&gt;[Route: domain.com/sandbox/{id}]&lt;br&gt;&lt;br&gt;A sanbox diagram without a way to save the diagram, only export it and play around&lt;/font&gt;" style="rounded=1;whiteSpace=wrap;html=1;align=center;strokeColor=default;fillColor=default;comic=0;resizable=0;" parent="1" vertex="1">
          <mxGeometry x="40" y="560" width="200" height="120" as="geometry" />
        </mxCell>
        <mxCell id="7uxNCrYDZUdD2VjblNM6-20" value="Open profile&lt;br&gt;&lt;font style=&quot;font-size: 10px&quot;&gt;[HTTPS]&lt;/font&gt;" style="endArrow=classic;html=1;edgeStyle=orthogonalEdgeStyle;rounded=0;flowAnimation=0;entryX=0;entryY=0.5;entryDx=0;entryDy=0;" parent="1" source="TL-VcJ01x00mZeEzHa4U-1" target="7uxNCrYDZUdD2VjblNM6-18" edge="1">
          <mxGeometry width="50" height="50" relative="1" as="geometry">
            <mxPoint x="-70" y="430" as="sourcePoint" />
            <mxPoint x="50" y="230" as="targetPoint" />
          </mxGeometry>
        </mxCell>
        <mxCell id="7uxNCrYDZUdD2VjblNM6-21" value="Open profile&lt;br&gt;&lt;font style=&quot;font-size: 10px&quot;&gt;[HTTPS]&lt;/font&gt;" style="endArrow=classic;html=1;edgeStyle=orthogonalEdgeStyle;rounded=0;flowAnimation=0;entryX=0;entryY=0.5;entryDx=0;entryDy=0;" parent="1" source="TL-VcJ01x00mZeEzHa4U-1" target="7uxNCrYDZUdD2VjblNM6-19" edge="1">
          <mxGeometry width="50" height="50" relative="1" as="geometry">
            <mxPoint x="-60" y="440" as="sourcePoint" />
            <mxPoint x="60" y="240" as="targetPoint" />
          </mxGeometry>
        </mxCell>
        <mxCell id="mQDdmRGSbBpISK8NYDqX-2" value="&lt;b&gt;&lt;font style=&quot;font-size: 13px&quot;&gt;Release 4&lt;/font&gt;&lt;/b&gt;&lt;br style=&quot;font-size: 12px&quot;&gt;&lt;font style=&quot;font-size: 11px&quot;&gt;[Scope]&lt;/font&gt;" style="rounded=0;whiteSpace=wrap;html=1;dashed=1;verticalAlign=bottom;align=left;fontSize=12;fontColor=#333333;spacingBottom=4;spacingLeft=2;fillColor=none;strokeColor=#666666;" parent="1" vertex="1">
          <mxGeometry x="-320" y="1040" width="280" height="200" as="geometry" />
        </mxCell>
      </root>
    </mxGraphModel>
  </diagram>
  <diagram id="XmD4faeCfQcM_O9Xm-ri" name="elements hierarchy">
    <mxGraphModel dx="2472" dy="1133" grid="1" gridSize="10" guides="1" tooltips="1" connect="1" arrows="1" fold="1" page="0" pageScale="1" pageWidth="850" pageHeight="1100" math="0" shadow="0">
      <root>
        <mxCell id="0" />
        <mxCell id="1" parent="0" />
        <mxCell id="aP2-uBjf9HNHBHyjKAv6-2" value="Model" style="rounded=0;whiteSpace=wrap;html=1;dashed=1;fillColor=none;verticalAlign=top;align=right;" parent="1" vertex="1">
          <mxGeometry x="-80" y="40" width="840" height="140" as="geometry" />
        </mxCell>
        <mxCell id="aP2-uBjf9HNHBHyjKAv6-1" value="Views" style="rounded=0;whiteSpace=wrap;html=1;dashed=1;fillColor=none;verticalAlign=top;align=left;" parent="1" vertex="1">
          <mxGeometry x="-40" width="240" height="440" as="geometry" />
        </mxCell>
        <mxCell id="XlCleeBCFYCbDwRgsCDi-1" value="required" style="edgeStyle=orthogonalEdgeStyle;rounded=0;orthogonalLoop=1;jettySize=auto;html=1;fontSize=10;entryX=0;entryY=0.5;entryDx=0;entryDy=0;" parent="1" source="XlCleeBCFYCbDwRgsCDi-5" target="XlCleeBCFYCbDwRgsCDi-7" edge="1">
          <mxGeometry relative="1" as="geometry" />
        </mxCell>
        <mxCell id="XlCleeBCFYCbDwRgsCDi-2" value="optional" style="edgeStyle=orthogonalEdgeStyle;rounded=0;orthogonalLoop=1;jettySize=auto;html=1;fontSize=10;entryX=0;entryY=0.5;entryDx=0;entryDy=0;" parent="1" source="XlCleeBCFYCbDwRgsCDi-5" target="XlCleeBCFYCbDwRgsCDi-11" edge="1">
          <mxGeometry relative="1" as="geometry" />
        </mxCell>
        <mxCell id="XlCleeBCFYCbDwRgsCDi-4" value="optional" style="edgeStyle=orthogonalEdgeStyle;rounded=0;orthogonalLoop=1;jettySize=auto;html=1;fontSize=10;entryX=0;entryY=0.5;entryDx=0;entryDy=0;" parent="1" source="XlCleeBCFYCbDwRgsCDi-5" target="XlCleeBCFYCbDwRgsCDi-14" edge="1">
          <mxGeometry relative="1" as="geometry" />
        </mxCell>
        <mxCell id="XlCleeBCFYCbDwRgsCDi-5" value="Workspace" style="rounded=1;whiteSpace=wrap;html=1;" parent="1" vertex="1">
          <mxGeometry x="-360" y="80" width="160" height="60" as="geometry" />
        </mxCell>
        <mxCell id="XlCleeBCFYCbDwRgsCDi-6" value="required" style="edgeStyle=orthogonalEdgeStyle;rounded=0;orthogonalLoop=1;jettySize=auto;html=1;fontSize=10;" parent="1" source="XlCleeBCFYCbDwRgsCDi-7" target="XlCleeBCFYCbDwRgsCDi-9" edge="1">
          <mxGeometry relative="1" as="geometry" />
        </mxCell>
        <mxCell id="XlCleeBCFYCbDwRgsCDi-7" value="Software Systems" style="rounded=1;whiteSpace=wrap;html=1;" parent="1" vertex="1">
          <mxGeometry y="80" width="160" height="60" as="geometry" />
        </mxCell>
        <mxCell id="XlCleeBCFYCbDwRgsCDi-8" value="required" style="edgeStyle=orthogonalEdgeStyle;rounded=0;orthogonalLoop=1;jettySize=auto;html=1;fontSize=10;" parent="1" source="XlCleeBCFYCbDwRgsCDi-9" target="XlCleeBCFYCbDwRgsCDi-10" edge="1">
          <mxGeometry relative="1" as="geometry" />
        </mxCell>
        <mxCell id="XlCleeBCFYCbDwRgsCDi-9" value="Containers" style="rounded=1;whiteSpace=wrap;html=1;" parent="1" vertex="1">
          <mxGeometry x="280" y="80" width="160" height="60" as="geometry" />
        </mxCell>
        <mxCell id="XlCleeBCFYCbDwRgsCDi-10" value="Components" style="rounded=1;whiteSpace=wrap;html=1;" parent="1" vertex="1">
          <mxGeometry x="560" y="80" width="160" height="60" as="geometry" />
        </mxCell>
        <mxCell id="XlCleeBCFYCbDwRgsCDi-11" value="Deployment Environments" style="rounded=1;whiteSpace=wrap;html=1;" parent="1" vertex="1">
          <mxGeometry y="200" width="160" height="60" as="geometry" />
        </mxCell>
        <mxCell id="XlCleeBCFYCbDwRgsCDi-14" value="Model" style="rounded=1;whiteSpace=wrap;html=1;" parent="1" vertex="1">
          <mxGeometry y="320" width="160" height="60" as="geometry" />
        </mxCell>
      </root>
    </mxGraphModel>
  </diagram>
  <diagram id="XXgy7W9qj5o7YFIZoLOT" name="data model">
    <mxGraphModel dx="1220" dy="822" grid="1" gridSize="10" guides="1" tooltips="1" connect="1" arrows="1" fold="1" page="1" pageScale="1" pageWidth="850" pageHeight="1100" math="0" shadow="0">
      <root>
        <mxCell id="0" />
        <mxCell id="1" parent="0" />
        <mxCell id="YTfNl7EaYazvT5nN4495-1" value="Comment Thread" style="rounded=1;arcSize=10;whiteSpace=wrap;html=1;align=center;" vertex="1" parent="1">
          <mxGeometry x="440" y="480" width="120" height="40" as="geometry" />
        </mxCell>
        <mxCell id="YTfNl7EaYazvT5nN4495-2" value="Comment" style="rounded=1;arcSize=10;whiteSpace=wrap;html=1;align=center;" vertex="1" parent="1">
          <mxGeometry x="440" y="600" width="120" height="40" as="geometry" />
        </mxCell>
        <mxCell id="YTfNl7EaYazvT5nN4495-3" value="Workspace" style="rounded=1;arcSize=10;whiteSpace=wrap;html=1;align=center;" vertex="1" parent="1">
          <mxGeometry x="280" y="240" width="120" height="40" as="geometry" />
        </mxCell>
        <mxCell id="YTfNl7EaYazvT5nN4495-4" value="Account" style="rounded=1;arcSize=10;whiteSpace=wrap;html=1;align=center;" vertex="1" parent="1">
          <mxGeometry x="280" y="120" width="120" height="40" as="geometry" />
        </mxCell>
        <mxCell id="YTfNl7EaYazvT5nN4495-5" value="workspaces" style="endArrow=none;html=1;rounded=0;" edge="1" parent="1" source="YTfNl7EaYazvT5nN4495-4" target="YTfNl7EaYazvT5nN4495-3">
          <mxGeometry relative="1" as="geometry">
            <mxPoint x="210" y="380" as="sourcePoint" />
            <mxPoint x="370" y="380" as="targetPoint" />
          </mxGeometry>
        </mxCell>
        <mxCell id="YTfNl7EaYazvT5nN4495-6" value="1" style="resizable=0;html=1;whiteSpace=wrap;align=left;verticalAlign=bottom;" connectable="0" vertex="1" parent="YTfNl7EaYazvT5nN4495-5">
          <mxGeometry x="-1" relative="1" as="geometry" />
        </mxCell>
        <mxCell id="YTfNl7EaYazvT5nN4495-7" value="N" style="resizable=0;html=1;whiteSpace=wrap;align=right;verticalAlign=bottom;" connectable="0" vertex="1" parent="YTfNl7EaYazvT5nN4495-5">
          <mxGeometry x="1" relative="1" as="geometry" />
        </mxCell>
        <mxCell id="YTfNl7EaYazvT5nN4495-8" value="comment threads" style="endArrow=none;html=1;rounded=0;" edge="1" parent="1" source="YTfNl7EaYazvT5nN4495-18" target="YTfNl7EaYazvT5nN4495-1">
          <mxGeometry relative="1" as="geometry">
            <mxPoint x="340" y="420" as="sourcePoint" />
            <mxPoint x="500" y="420" as="targetPoint" />
          </mxGeometry>
        </mxCell>
        <mxCell id="YTfNl7EaYazvT5nN4495-9" value="1" style="resizable=0;html=1;whiteSpace=wrap;align=left;verticalAlign=bottom;" connectable="0" vertex="1" parent="YTfNl7EaYazvT5nN4495-8">
          <mxGeometry x="-1" relative="1" as="geometry" />
        </mxCell>
        <mxCell id="YTfNl7EaYazvT5nN4495-10" value="N" style="resizable=0;html=1;whiteSpace=wrap;align=right;verticalAlign=bottom;" connectable="0" vertex="1" parent="YTfNl7EaYazvT5nN4495-8">
          <mxGeometry x="1" relative="1" as="geometry" />
        </mxCell>
        <mxCell id="YTfNl7EaYazvT5nN4495-11" value="comments" style="endArrow=none;html=1;rounded=0;" edge="1" parent="1" source="YTfNl7EaYazvT5nN4495-1" target="YTfNl7EaYazvT5nN4495-2">
          <mxGeometry relative="1" as="geometry">
            <mxPoint x="180" y="540" as="sourcePoint" />
            <mxPoint x="340" y="540" as="targetPoint" />
          </mxGeometry>
        </mxCell>
        <mxCell id="YTfNl7EaYazvT5nN4495-12" value="1" style="resizable=0;html=1;whiteSpace=wrap;align=left;verticalAlign=bottom;" connectable="0" vertex="1" parent="YTfNl7EaYazvT5nN4495-11">
          <mxGeometry x="-1" relative="1" as="geometry" />
        </mxCell>
        <mxCell id="YTfNl7EaYazvT5nN4495-13" value="N" style="resizable=0;html=1;whiteSpace=wrap;align=right;verticalAlign=bottom;" connectable="0" vertex="1" parent="YTfNl7EaYazvT5nN4495-11">
          <mxGeometry x="1" relative="1" as="geometry" />
        </mxCell>
        <mxCell id="YTfNl7EaYazvT5nN4495-14" value="Comment&amp;nbsp; Thread Metadata" style="rounded=1;arcSize=10;whiteSpace=wrap;html=1;align=center;" vertex="1" parent="1">
          <mxGeometry x="280" y="600" width="120" height="40" as="geometry" />
        </mxCell>
        <mxCell id="YTfNl7EaYazvT5nN4495-15" value="metadata" style="endArrow=none;html=1;rounded=0;" edge="1" parent="1" source="YTfNl7EaYazvT5nN4495-1" target="YTfNl7EaYazvT5nN4495-14">
          <mxGeometry relative="1" as="geometry">
            <mxPoint x="370" y="590" as="sourcePoint" />
            <mxPoint x="530" y="590" as="targetPoint" />
          </mxGeometry>
        </mxCell>
        <mxCell id="YTfNl7EaYazvT5nN4495-16" value="1" style="resizable=0;html=1;whiteSpace=wrap;align=left;verticalAlign=bottom;" connectable="0" vertex="1" parent="YTfNl7EaYazvT5nN4495-15">
          <mxGeometry x="-1" relative="1" as="geometry" />
        </mxCell>
        <mxCell id="YTfNl7EaYazvT5nN4495-17" value="1" style="resizable=0;html=1;whiteSpace=wrap;align=right;verticalAlign=bottom;" connectable="0" vertex="1" parent="YTfNl7EaYazvT5nN4495-15">
          <mxGeometry x="1" relative="1" as="geometry" />
        </mxCell>
        <mxCell id="YTfNl7EaYazvT5nN4495-18" value="Workspace View" style="rounded=1;arcSize=10;whiteSpace=wrap;html=1;align=center;" vertex="1" parent="1">
          <mxGeometry x="280" y="360" width="120" height="40" as="geometry" />
        </mxCell>
        <mxCell id="YTfNl7EaYazvT5nN4495-19" value="Workspace View Metadata" style="rounded=1;arcSize=10;whiteSpace=wrap;html=1;align=center;" vertex="1" parent="1">
          <mxGeometry x="280" y="480" width="120" height="40" as="geometry" />
        </mxCell>
        <mxCell id="YTfNl7EaYazvT5nN4495-20" value="Workspace Theme" style="rounded=1;arcSize=10;whiteSpace=wrap;html=1;align=center;" vertex="1" parent="1">
          <mxGeometry x="120" y="360" width="120" height="40" as="geometry" />
        </mxCell>
        <mxCell id="YTfNl7EaYazvT5nN4495-21" value="theme" style="endArrow=none;html=1;rounded=0;" edge="1" parent="1" source="YTfNl7EaYazvT5nN4495-3" target="YTfNl7EaYazvT5nN4495-20">
          <mxGeometry relative="1" as="geometry">
            <mxPoint x="490" y="530" as="sourcePoint" />
            <mxPoint x="650" y="530" as="targetPoint" />
          </mxGeometry>
        </mxCell>
        <mxCell id="YTfNl7EaYazvT5nN4495-22" value="1" style="resizable=0;html=1;whiteSpace=wrap;align=left;verticalAlign=bottom;" connectable="0" vertex="1" parent="YTfNl7EaYazvT5nN4495-21">
          <mxGeometry x="-1" relative="1" as="geometry" />
        </mxCell>
        <mxCell id="YTfNl7EaYazvT5nN4495-23" value="N" style="resizable=0;html=1;whiteSpace=wrap;align=right;verticalAlign=bottom;" connectable="0" vertex="1" parent="YTfNl7EaYazvT5nN4495-21">
          <mxGeometry x="1" relative="1" as="geometry" />
        </mxCell>
        <mxCell id="YTfNl7EaYazvT5nN4495-24" value="metadata" style="endArrow=none;html=1;rounded=0;" edge="1" parent="1" source="YTfNl7EaYazvT5nN4495-18" target="YTfNl7EaYazvT5nN4495-19">
          <mxGeometry relative="1" as="geometry">
            <mxPoint x="500" y="540" as="sourcePoint" />
            <mxPoint x="660" y="540" as="targetPoint" />
          </mxGeometry>
        </mxCell>
        <mxCell id="YTfNl7EaYazvT5nN4495-25" value="1" style="resizable=0;html=1;whiteSpace=wrap;align=left;verticalAlign=bottom;" connectable="0" vertex="1" parent="YTfNl7EaYazvT5nN4495-24">
          <mxGeometry x="-1" relative="1" as="geometry" />
        </mxCell>
        <mxCell id="YTfNl7EaYazvT5nN4495-26" value="N" style="resizable=0;html=1;whiteSpace=wrap;align=right;verticalAlign=bottom;" connectable="0" vertex="1" parent="YTfNl7EaYazvT5nN4495-24">
          <mxGeometry x="1" relative="1" as="geometry" />
        </mxCell>
        <mxCell id="YTfNl7EaYazvT5nN4495-27" value="views" style="endArrow=none;html=1;rounded=0;" edge="1" parent="1" source="YTfNl7EaYazvT5nN4495-3" target="YTfNl7EaYazvT5nN4495-18">
          <mxGeometry relative="1" as="geometry">
            <mxPoint x="510" y="550" as="sourcePoint" />
            <mxPoint x="670" y="550" as="targetPoint" />
          </mxGeometry>
        </mxCell>
        <mxCell id="YTfNl7EaYazvT5nN4495-28" value="1" style="resizable=0;html=1;whiteSpace=wrap;align=left;verticalAlign=bottom;" connectable="0" vertex="1" parent="YTfNl7EaYazvT5nN4495-27">
          <mxGeometry x="-1" relative="1" as="geometry" />
        </mxCell>
        <mxCell id="YTfNl7EaYazvT5nN4495-29" value="N" style="resizable=0;html=1;whiteSpace=wrap;align=right;verticalAlign=bottom;" connectable="0" vertex="1" parent="YTfNl7EaYazvT5nN4495-27">
          <mxGeometry x="1" relative="1" as="geometry" />
        </mxCell>
        <mxCell id="YTfNl7EaYazvT5nN4495-30" value="User" style="rounded=1;arcSize=10;whiteSpace=wrap;html=1;align=center;" vertex="1" parent="1">
          <mxGeometry x="640" y="600" width="100" height="40" as="geometry" />
        </mxCell>
        <mxCell id="YTfNl7EaYazvT5nN4495-31" value="author" style="endArrow=none;html=1;rounded=0;" edge="1" parent="1" source="YTfNl7EaYazvT5nN4495-1" target="YTfNl7EaYazvT5nN4495-30">
          <mxGeometry relative="1" as="geometry">
            <mxPoint x="497" y="530" as="sourcePoint" />
            <mxPoint x="443" y="610" as="targetPoint" />
          </mxGeometry>
        </mxCell>
        <mxCell id="YTfNl7EaYazvT5nN4495-32" value="1" style="resizable=0;html=1;whiteSpace=wrap;align=left;verticalAlign=bottom;" connectable="0" vertex="1" parent="YTfNl7EaYazvT5nN4495-31">
          <mxGeometry x="-1" relative="1" as="geometry" />
        </mxCell>
        <mxCell id="YTfNl7EaYazvT5nN4495-33" value="1" style="resizable=0;html=1;whiteSpace=wrap;align=right;verticalAlign=bottom;" connectable="0" vertex="1" parent="YTfNl7EaYazvT5nN4495-31">
          <mxGeometry x="1" relative="1" as="geometry" />
        </mxCell>
        <mxCell id="YTfNl7EaYazvT5nN4495-34" value="commenter" style="endArrow=none;html=1;rounded=0;" edge="1" parent="1" source="YTfNl7EaYazvT5nN4495-30" target="YTfNl7EaYazvT5nN4495-2">
          <mxGeometry relative="1" as="geometry">
            <mxPoint x="570" y="510" as="sourcePoint" />
            <mxPoint x="690" y="510" as="targetPoint" />
          </mxGeometry>
        </mxCell>
        <mxCell id="YTfNl7EaYazvT5nN4495-35" value="1" style="resizable=0;html=1;whiteSpace=wrap;align=left;verticalAlign=bottom;" connectable="0" vertex="1" parent="YTfNl7EaYazvT5nN4495-34">
          <mxGeometry x="-1" relative="1" as="geometry" />
        </mxCell>
        <mxCell id="YTfNl7EaYazvT5nN4495-36" value="1" style="resizable=0;html=1;whiteSpace=wrap;align=right;verticalAlign=bottom;" connectable="0" vertex="1" parent="YTfNl7EaYazvT5nN4495-34">
          <mxGeometry x="1" relative="1" as="geometry" />
        </mxCell>
        <mxCell id="YTfNl7EaYazvT5nN4495-37" value="Workspace Code" style="rounded=1;arcSize=10;whiteSpace=wrap;html=1;align=center;" vertex="1" parent="1">
          <mxGeometry x="440" y="360" width="120" height="40" as="geometry" />
        </mxCell>
        <mxCell id="YTfNl7EaYazvT5nN4495-38" value="code" style="endArrow=none;html=1;rounded=0;" edge="1" parent="1" source="YTfNl7EaYazvT5nN4495-3" target="YTfNl7EaYazvT5nN4495-37">
          <mxGeometry relative="1" as="geometry">
            <mxPoint x="350" y="290" as="sourcePoint" />
            <mxPoint x="350" y="370" as="targetPoint" />
          </mxGeometry>
        </mxCell>
        <mxCell id="YTfNl7EaYazvT5nN4495-39" value="1" style="resizable=0;html=1;whiteSpace=wrap;align=left;verticalAlign=bottom;" connectable="0" vertex="1" parent="YTfNl7EaYazvT5nN4495-38">
          <mxGeometry x="-1" relative="1" as="geometry" />
        </mxCell>
        <mxCell id="YTfNl7EaYazvT5nN4495-40" value="N" style="resizable=0;html=1;whiteSpace=wrap;align=right;verticalAlign=bottom;" connectable="0" vertex="1" parent="YTfNl7EaYazvT5nN4495-38">
          <mxGeometry x="1" relative="1" as="geometry" />
        </mxCell>
      </root>
    </mxGraphModel>
  </diagram>
  <diagram id="kTmwAlNbdC2R5JALTucy" name="pacakges">
    <mxGraphModel dx="2072" dy="1085" grid="1" gridSize="10" guides="1" tooltips="1" connect="1" arrows="1" fold="1" page="0" pageScale="1" pageWidth="850" pageHeight="1100" math="0" shadow="0">
      <root>
        <mxCell id="0" />
        <mxCell id="1" parent="0" />
        <mxCell id="SO9cSrUCejLai0RplIUl-1" value="svg implementation" style="rounded=0;whiteSpace=wrap;html=1;sketch=1;curveFitting=1;jiggle=2;fillColor=#f5f5f5;fontColor=#333333;strokeColor=#666666;verticalAlign=top;align=left;" vertex="1" parent="1">
          <mxGeometry x="1360" y="240" width="520" height="360" as="geometry" />
        </mxCell>
        <mxCell id="SO9cSrUCejLai0RplIUl-2" value="reactflow adapter" style="rounded=0;whiteSpace=wrap;html=1;sketch=1;curveFitting=1;jiggle=2;fillColor=#f5f5f5;fontColor=#333333;strokeColor=#666666;verticalAlign=top;align=left;" vertex="1" parent="1">
          <mxGeometry x="520" y="240" width="520" height="360" as="geometry" />
        </mxCell>
        <mxCell id="SO9cSrUCejLai0RplIUl-3" value="@structurizr/dsl" style="rounded=1;whiteSpace=wrap;html=1;" vertex="1" parent="1">
          <mxGeometry x="1080" y="280" width="240" height="40" as="geometry" />
        </mxCell>
        <mxCell id="SO9cSrUCejLai0RplIUl-4" style="rounded=0;orthogonalLoop=1;jettySize=auto;html=1;" edge="1" parent="1" source="SO9cSrUCejLai0RplIUl-5" target="SO9cSrUCejLai0RplIUl-3">
          <mxGeometry relative="1" as="geometry" />
        </mxCell>
        <mxCell id="SO9cSrUCejLai0RplIUl-5" value="@structurizr/parser" style="rounded=1;whiteSpace=wrap;html=1;" vertex="1" parent="1">
          <mxGeometry x="1080" y="400" width="240" height="40" as="geometry" />
        </mxCell>
        <mxCell id="SO9cSrUCejLai0RplIUl-6" style="rounded=0;orthogonalLoop=1;jettySize=auto;html=1;" edge="1" parent="1" source="SO9cSrUCejLai0RplIUl-7" target="SO9cSrUCejLai0RplIUl-3">
          <mxGeometry relative="1" as="geometry" />
        </mxCell>
        <mxCell id="SO9cSrUCejLai0RplIUl-7" value="@structurizr/svg" style="rounded=1;whiteSpace=wrap;html=1;" vertex="1" parent="1">
          <mxGeometry x="1600" y="280" width="240" height="40" as="geometry" />
        </mxCell>
        <mxCell id="SO9cSrUCejLai0RplIUl-8" style="rounded=0;orthogonalLoop=1;jettySize=auto;html=1;" edge="1" parent="1" source="SO9cSrUCejLai0RplIUl-9" target="SO9cSrUCejLai0RplIUl-3">
          <mxGeometry relative="1" as="geometry" />
        </mxCell>
        <mxCell id="SO9cSrUCejLai0RplIUl-9" value="@workspace/core" style="rounded=1;whiteSpace=wrap;html=1;" vertex="1" parent="1">
          <mxGeometry x="560" y="280" width="240" height="40" as="geometry" />
        </mxCell>
        <mxCell id="SO9cSrUCejLai0RplIUl-10" value="@restruct/toolbar" style="rounded=1;whiteSpace=wrap;html=1;" vertex="1" parent="1">
          <mxGeometry x="1080" y="520" width="240" height="40" as="geometry" />
        </mxCell>
        <mxCell id="SO9cSrUCejLai0RplIUl-11" style="rounded=0;orthogonalLoop=1;jettySize=auto;html=1;" edge="1" parent="1" source="SO9cSrUCejLai0RplIUl-13" target="SO9cSrUCejLai0RplIUl-10">
          <mxGeometry relative="1" as="geometry">
            <mxPoint x="893.3333333333335" y="320" as="targetPoint" />
          </mxGeometry>
        </mxCell>
        <mxCell id="SO9cSrUCejLai0RplIUl-12" style="rounded=0;orthogonalLoop=1;jettySize=auto;html=1;" edge="1" parent="1" source="SO9cSrUCejLai0RplIUl-13" target="SO9cSrUCejLai0RplIUl-9">
          <mxGeometry relative="1" as="geometry" />
        </mxCell>
        <mxCell id="SO9cSrUCejLai0RplIUl-13" value="@workspace/controls" style="rounded=1;whiteSpace=wrap;html=1;" vertex="1" parent="1">
          <mxGeometry x="560" y="520" width="240" height="40" as="geometry" />
        </mxCell>
        <mxCell id="SO9cSrUCejLai0RplIUl-14" style="rounded=0;orthogonalLoop=1;jettySize=auto;html=1;" edge="1" parent="1" source="SO9cSrUCejLai0RplIUl-17" target="SO9cSrUCejLai0RplIUl-13">
          <mxGeometry relative="1" as="geometry" />
        </mxCell>
        <mxCell id="SO9cSrUCejLai0RplIUl-15" style="rounded=0;orthogonalLoop=1;jettySize=auto;html=1;" edge="1" parent="1" source="SO9cSrUCejLai0RplIUl-17" target="SO9cSrUCejLai0RplIUl-5">
          <mxGeometry relative="1" as="geometry" />
        </mxCell>
        <mxCell id="SO9cSrUCejLai0RplIUl-16" style="rounded=0;orthogonalLoop=1;jettySize=auto;html=1;" edge="1" parent="1" source="SO9cSrUCejLai0RplIUl-17" target="SO9cSrUCejLai0RplIUl-9">
          <mxGeometry relative="1" as="geometry" />
        </mxCell>
        <mxCell id="SO9cSrUCejLai0RplIUl-17" value="@restruct/app" style="rounded=1;whiteSpace=wrap;html=1;" vertex="1" parent="1">
          <mxGeometry x="760" y="400" width="240" height="40" as="geometry" />
        </mxCell>
        <mxCell id="SO9cSrUCejLai0RplIUl-18" style="rounded=0;orthogonalLoop=1;jettySize=auto;html=1;" edge="1" parent="1" source="SO9cSrUCejLai0RplIUl-21" target="SO9cSrUCejLai0RplIUl-5">
          <mxGeometry relative="1" as="geometry" />
        </mxCell>
        <mxCell id="SO9cSrUCejLai0RplIUl-19" style="rounded=0;orthogonalLoop=1;jettySize=auto;html=1;" edge="1" parent="1" source="SO9cSrUCejLai0RplIUl-21" target="SO9cSrUCejLai0RplIUl-7">
          <mxGeometry relative="1" as="geometry" />
        </mxCell>
        <mxCell id="SO9cSrUCejLai0RplIUl-20" style="rounded=0;orthogonalLoop=1;jettySize=auto;html=1;" edge="1" parent="1" source="SO9cSrUCejLai0RplIUl-21" target="SO9cSrUCejLai0RplIUl-24">
          <mxGeometry relative="1" as="geometry" />
        </mxCell>
        <mxCell id="SO9cSrUCejLai0RplIUl-21" value="@structurizr-preview/webview" style="rounded=1;whiteSpace=wrap;html=1;" vertex="1" parent="1">
          <mxGeometry x="1400" y="400" width="240" height="40" as="geometry" />
        </mxCell>
        <mxCell id="SO9cSrUCejLai0RplIUl-22" style="rounded=0;orthogonalLoop=1;jettySize=auto;html=1;" edge="1" parent="1" source="SO9cSrUCejLai0RplIUl-24" target="SO9cSrUCejLai0RplIUl-10">
          <mxGeometry relative="1" as="geometry" />
        </mxCell>
        <mxCell id="SO9cSrUCejLai0RplIUl-23" style="rounded=0;orthogonalLoop=1;jettySize=auto;html=1;" edge="1" parent="1" source="SO9cSrUCejLai0RplIUl-24" target="SO9cSrUCejLai0RplIUl-7">
          <mxGeometry relative="1" as="geometry" />
        </mxCell>
        <mxCell id="SO9cSrUCejLai0RplIUl-24" value="@restruct/workspace-controls" style="rounded=1;whiteSpace=wrap;html=1;" vertex="1" parent="1">
          <mxGeometry x="1600" y="520" width="240" height="40" as="geometry" />
        </mxCell>
        <mxCell id="SO9cSrUCejLai0RplIUl-25" value="&lt;h1 style=&quot;margin-top: 0px;&quot;&gt;@workspace/*&lt;/h1&gt;&lt;p&gt;A consolidation of:&lt;br&gt;- @structurizr/react&lt;br&gt;- @structurizr/live&lt;br&gt;- @restruct.workspace-renderer&lt;br&gt;&lt;/p&gt;" style="text;html=1;whiteSpace=wrap;overflow=hidden;rounded=0;" vertex="1" parent="1">
          <mxGeometry x="280" y="240" width="180" height="120" as="geometry" />
        </mxCell>
      </root>
    </mxGraphModel>
  </diagram>
</mxfile>
